<?xml version="1.0" encoding="utf-8"?>
<svg width="1024px" height="1024px" viewBox="0 0 1024 1024" version="1.1" xmlns="http://www.w3.org/2000/svg" xmlns:xlink="http://www.w3.org/1999/xlink">
    <!-- generator: sketch 53.2 (72643) - https://sketchapp.com -->
    <title>comment</title>
    <desc>created with sketch.</desc>
    <g id="comment" stroke="none" stroke-width="1" fill-rule="evenodd">
        <g id="group" transform="translate(37.000000, 36.000000)" fill-rule="nonzero">
            <path d="M475,585 C415.353247,585 367,536.646753 367,477 C367,417.353247 415.353247,369 475,369 C534.646753,369 583,417.353247 583,477 C583,536.646753 534.646753,585 475,585 Z M475,513 C494.882251,513 511,496.882251 511,477 C511,457.117749 494.882251,441 475,441 C455.117749,441 439,457.117749 439,477 C439,496.882251 455.117749,513 475,513 Z" id="oval"></path>
            <path d="M205,585 C145.353247,585 97,536.646753 97,477 C97,417.353247 145.353247,369 205,369 C264.646753,369 313,417.353247 313,477 C313,536.646753 264.646753,585 205,585 Z M205,513 C224.882251,513 241,496.882251 241,477 C241,457.117749 224.882251,441 205,441 C185.117749,441 169,457.117749 169,477 C169,496.882251 185.117749,513 205,513 Z" id="oval"></path>
            <path d="M745,585 C685.353247,585 637,536.646753 637,477 C637,417.353247 685.353247,369 745,369 C804.646753,369 853,417.353247 853,477 C853,536.646753 804.646753,585 745,585 Z M745,513 C764.882251,513 781,496.882251 781,477 C781,457.117749 764.882251,441 745,441 C725.117749,441 709,457.117749 709,477 C709,496.882251 725.117749,513 745,513 Z" id="oval"></path>
            <path d="M475,986 C192.782493,986 -36,757.217507 -36,475 C-36,192.782493 192.782493,-36 475,-36 C757.217507,-36 986,192.782493 986,475 C986,568.421504 960.85782,658.22843 914.000089,736.676384 C914.749176,740.929447 916.480521,747.00676 919.195799,754.613082 C924.54731,769.604294 930.861506,783.955917 947.004061,818.858635 C947.151473,819.177365 947.151473,819.177365 947.298942,819.496226 C964.815793,857.371977 972.247213,874.443225 978.592961,893.137733 C983.099164,906.412961 985.888966,917.846103 986.751235,928.289887 C987.340809,935.430804 987.042867,942.22381 985.544593,948.848723 C983.490278,957.932275 979.24496,966.273433 972.432941,973.070027 C965.589057,979.898415 957.195685,984.106449 948.07299,986.097218 C941.466285,987.538944 934.704737,987.784143 927.598183,987.14689 C917.230232,986.217183 905.875156,983.376198 892.679307,978.824607 C874.091471,972.413181 857.10144,964.938012 819.392449,947.332413 C819.078893,947.186018 819.078893,947.186018 818.765461,947.039678 C783.948549,930.783673 769.638407,924.422587 754.698355,919.014609 C747.233936,916.31265 741.251631,914.568734 737.03814,913.783831 C658.508113,960.778668 568.567937,986 475,986 Z M881.949346,849.719235 C881.802177,849.401024 881.802177,849.401024 881.654947,849.082688 C864.492925,811.975721 857.759655,796.671581 851.38681,778.8193 C846.925564,766.321991 843.942287,755.508554 842.53673,745.695675 C840.358966,730.491633 841.640298,716.978927 849.268096,704.572088 C891.382314,636.07207 914,557.244182 914,475 C914,232.546995 717.453005,36 475,36 C232.546995,36 36,232.546995 36,475 C36,717.453005 232.546995,914 475,914 C557.440949,914 636.448073,891.273632 705.057827,848.969026 C717.509135,841.29158 731.028116,840.0721 746.249973,842.334877 C756.0055,843.785066 766.761601,846.809374 779.204698,851.313508 C796.976342,857.746461 812.226212,864.525271 849.225697,881.800318 C849.538742,881.946478 849.538742,881.946478 849.851667,882.092578 C878.382554,895.413097 894.177736,902.508169 907.274761,907.525233 C902.302218,894.344514 895.248466,878.475212 881.949346,849.719235 Z" id="oval"></path>
        </g>
    </g>
</svg>
