<?xml version="1.0" encoding="UTF-8"?>
<svg width="1024px" height="1024px" viewBox="0 0 1024 1024" version="1.1" xmlns="http://www.w3.org/2000/svg" xmlns:xlink="http://www.w3.org/1999/xlink">
    <!-- Generator: Sketch 53.2 (72643) - https://sketchapp.com -->
    <title>eye-invisible-outline</title>
    <desc>Created with Sketch.</desc>
    <g id="eye-invisible-outline" stroke="none" stroke-width="1" fill-rule="evenodd">
        <rect id="Rectangle" transform="translate(510.733892, 510.733892) rotate(45.000000) translate(-510.733892, -510.733892)" x="-196.766108" y="474.733892" width="1415" height="72" rx="36"></rect>
        <path d="M547.060174,756.224188 C388.049261,783.901469 244.724238,642.070806 272.462587,483.924266 L162.226188,374.614717 C122.771071,417.312356 92.398359,467.05677 72.9674682,521.59086 C72.9368907,522.293249 72.9164648,523.083911 72.9107298,523.895168 C72.9050013,524.705495 72.9143394,525.480812 72.9351561,526.159688 C148.12905,737.392356 377.5908,857.67521 602.675132,811.371544 L547.060174,756.224188 Z M276.472641,465.452786 L276.514651,465.2923 C276.500505,465.34578 276.486502,465.399276 276.472641,465.452786 Z M546.981779,682.679147 C560.445691,679.251262 575.036593,682.569163 585.626017,693.069552 L690.529202,797.090728 C712.954481,819.327458 703.792133,857.550279 673.623808,867.162946 C396.00261,955.32629 96.2373906,812.784773 3.81071221,546.625352 C-0.138576748,535.238029 0.024766426,512.13226 3.81503356,501.203466 C30.2587948,425.045994 74.8145965,356.854026 133.729285,301.078597 C149.912002,285.825459 175.31722,286.199459 191.062778,301.81263 L335.63514,445.169451 L335.777554,445.311459 C345.732091,455.293208 349.744676,469.805051 346.156999,483.565975 C315.632349,601.535436 427.783531,712.75606 546.981779,682.679147 Z" id="Path" fill-rule="nonzero"></path>
        <path d="M951.866351,522.735816 C951.576246,521.329299 951.060818,519.434373 950.319278,517.149335 C948.564086,511.740758 945.794762,504.90742 942.146964,497.100951 C934.146492,479.979543 922.627474,459.633286 909.074431,438.962729 C877.567585,390.909757 839.918398,347.973255 804.449292,321.881909 C718.906346,258.955861 639.3114,230.291487 525.00813,224.965538 C446.192282,221.293123 363.189945,240.090049 275.713482,281.840791 C257.770176,290.404768 236.281778,282.801319 227.717802,264.858013 C219.153826,246.914707 226.757275,225.42631 244.700581,216.862334 C342.417184,170.22418 437.065978,148.789767 528.359326,153.04357 C656.987794,159.037 750.231199,192.616567 847.113208,263.883716 C890.379175,295.710494 933.454192,344.83481 969.285921,399.48392 C1002.15004,449.606948 1024,496.366954 1024,522.781919 C1024,558.401422 994.043597,619.850079 951.360673,678.745038 C903.702251,744.505313 849.960927,793.876193 799.479848,810.176323 C780.559482,816.28563 760.268922,805.900215 754.159615,786.979848 C748.050307,768.059482 758.435723,747.768922 777.356089,741.659615 C809.802723,731.182732 853.591501,690.95502 893.061232,636.493704 C910.75144,612.084316 926.257315,586.556292 937.206533,564.096494 C942.361894,553.52146 946.329803,543.977618 948.912996,536.046409 C950.086534,532.44328 950.935051,529.290208 951.456736,526.687315 C951.76925,525.128062 951.930566,523.943591 951.981676,523.223287 C951.964236,523.221054 951.930617,523.047398 951.866351,522.735816 Z" id="Path-23" fill-rule="nonzero"></path>
        <path d="M686.36368,682.488509 L660.853605,707.84079 L319.689852,365.215291 L346.223373,339.826293 C390.692048,297.275773 448.977628,273.765654 512.343656,273.765654 C645.983246,273.765654 754.300211,382.226081 754.300211,515.994991 C754.300211,581.966487 731.347648,637.78279 686.36368,682.488509 Z M682.300211,515.994991 C682.300211,421.969265 606.197395,345.765654 512.343656,345.765654 C480.6005,345.765654 451.022523,353.969611 425.412252,369.348922 L658.418347,603.353352 C674.406351,578.322322 682.300211,549.595951 682.300211,515.994991 Z" id="Oval" fill-rule="nonzero"></path>
    </g>
</svg>
