<?xml version="1.0" encoding="UTF-8"?>
<svg width="1024px" height="1024px" viewBox="0 0 1024 1024" version="1.1" xmlns="http://www.w3.org/2000/svg" xmlns:xlink="http://www.w3.org/1999/xlink">
    <!-- Generator: Sketch 53.2 (72643) - https://sketchapp.com -->
    <title>eye-outline</title>
    <desc>Created with Sketch.</desc>
    <g id="eye-outline" stroke="none" stroke-width="1" fill-rule="evenodd">
        <path d="M511.5,759 C377.570948,759 269,650.429052 269,516.5 C269,382.570948 377.570948,274 511.5,274 C645.429052,274 754,382.570948 754,516.5 C754,650.429052 645.429052,759 511.5,759 Z M511.5,687 C605.66455,687 682,610.66455 682,516.5 C682,422.33545 605.66455,346 511.5,346 C417.33545,346 341,422.33545 341,516.5 C341,610.66455 417.33545,687 511.5,687 Z" id="Oval" fill-rule="nonzero"></path>
        <path d="M512.005406,152 C751.593655,152 959.19296,300.791426 1021.5382,512.845553 C1023.48733,519.475103 1023.48727,526.525547 1021.53802,533.155063 C959.190436,745.203179 751.585768,894 511.994594,894 C272.413466,894 64.8060394,745.20517 2.46180066,533.154447 C0.512671479,526.524897 0.512734368,519.474453 2.46198182,512.844937 C64.809564,300.796821 272.414232,152 512.005406,152 Z M512.005406,224 C307.691592,224 131.452779,347.559274 74.6735258,523.000331 C131.449904,698.4426 307.690505,822 511.994594,822 C716.308416,822 892.547234,698.440717 949.326481,522.999648 C892.549442,347.553986 716.316343,224 512.005406,224 Z" id="Shape" fill-rule="nonzero"></path>
    </g>
</svg>
