<?xml version="1.0" encoding="UTF-8"?>
<svg width="1024px" height="1024px" viewBox="0 0 1024 1024" version="1.1" xmlns="http://www.w3.org/2000/svg" xmlns:xlink="http://www.w3.org/1999/xlink">
    <!-- Generator: Sketch 53.2 (72643) - https://sketchapp.com -->
    <title>ok-circle</title>
    <desc>Created with Sketch.</desc>
    <g id="ok-circle" stroke="none" stroke-width="1" fill-rule="evenodd">
        <path d="M512,1024 C229.230208,1024 0,794.769792 0,512 C0,229.230208 229.230208,0 512,0 C794.769792,0 1024,229.230208 1024,512 C1024,794.769792 794.769792,1024 512,1024 Z M430.544156,621.088312 L300.455844,480 C286.39697,465.941125 263.60303,465.941125 249.544156,480 C235.485281,494.058875 235.485281,516.852814 249.544156,530.911688 L405.088312,697.455844 C419.147186,711.514719 441.941125,711.514719 456,697.455844 L825.544156,338.911688 C839.60303,324.852814 839.60303,302.058875 825.544156,288 C811.485281,273.941125 788.691342,273.941125 774.632468,288 L430.544156,621.088312 Z" id="Combined-Shape"></path>
    </g>
</svg>
