<?xml version="1.0" encoding="UTF-8"?>
<svg width="1024px" height="1024px" viewBox="0 0 1024 1024" version="1.1" xmlns="http://www.w3.org/2000/svg" xmlns:xlink="http://www.w3.org/1999/xlink">
    <!-- Generator: Sketch 57.1 (83088) - https://sketch.com -->
    <title>hero-shop-piggy-bank</title>
    <desc>Created with Sketch.</desc>
    <g id="hero-shop-piggy-bank" stroke="none" stroke-width="1" fill-rule="evenodd">
        <g id="Group" transform="translate(1.767008, 91.929607)" fill-rule="nonzero">
            <path d="M212.691208,633.517322 C122.105036,529.793934 82.3802068,431.448407 96.8776,338.659716 C107.412606,271.231773 130.584899,220.754903 168.991469,180.139571 C201.487421,145.774778 241.983573,120.064151 307.801843,88.3329385 C309.295678,87.6127557 310.837576,86.9953686 312.416642,86.4851397 C422.639508,50.8698598 527.059948,45.8567078 624.912289,71.9024992 L768.523555,3.60139356 C794.969386,-8.97616774 824.726058,13.2126812 819.942571,41.9433421 L801.301188,153.907536 C852.513555,186.970188 886.198393,229.927367 900.932048,282.001242 L994.343622,309.682721 C1009.70244,314.234134 1020.2277,328.262856 1020.2277,344.180927 L1020.2277,475.972696 C1020.2277,491.523226 1010.16866,505.315732 995.293701,510.17147 L887.628571,545.317361 C868.751971,581.69691 833.965914,615.819298 783.865002,648.639649 L783.865002,804.070393 C783.865002,823.952644 767.635986,840.070393 747.616481,840.070393 L603.369709,840.070393 C587.528769,840.070393 573.522583,829.854669 568.782243,814.843255 L546.417159,744.018903 C518.415876,748.136189 489.832465,747.991929 460.777557,743.619098 L435.746298,815.794129 C430.708444,830.320259 416.943493,840.070393 401.473787,840.070393 L248.939729,840.070393 C228.920224,840.070393 212.691208,823.952644 212.691208,804.070393 L212.691208,633.517322 Z M221.837643,229.428967 C193.922554,258.949452 176.904109,296.021219 168.517313,349.699819 C157.393645,420.895419 191.960009,502.887963 275.926004,595.874999 C281.889906,602.479643 285.18825,611.038743 285.18825,619.910236 L285.18825,768.070393 L375.620606,768.070393 L402.588422,690.311499 C408.748442,672.549724 427.624798,662.478094 445.937707,667.182144 C486.425623,677.582305 524.689353,677.582305 561.364291,667.371544 C580.225117,662.120454 599.874657,672.70019 605.736268,691.262374 L629.990889,768.070393 L711.36796,768.070393 L711.36796,628.863361 C711.36796,616.33406 717.92729,604.705953 728.686014,598.162637 C783.723479,564.689567 816.170989,532.450003 827.222325,503.361554 C831.09345,493.172286 839.400835,485.271062 849.818169,481.870458 L947.729786,449.909312 L947.729786,371.006099 L859.909383,344.981501 C846.697069,341.066179 836.865377,330.045559 834.543139,316.547764 C826.466167,269.601105 797.342931,232.591643 744.189434,203.889041 C730.627217,196.565517 723.22327,181.514938 725.741675,166.388849 L737.062381,98.3942318 L643.864074,142.719079 C635.729818,146.587708 626.435569,147.305846 617.796722,144.733223 C531.406529,119.00648 438.161593,121.989955 337.203714,154.195665 C280.066593,181.875147 246.563674,203.280943 221.837643,229.428967 Z" id="Path-24"></path>
            <path d="M726.984401,296.564154 C709.189223,296.564154 694.763494,310.89162 694.763494,328.564154 C694.763494,346.237754 709.189223,360.564154 726.984401,360.564154 C744.779471,360.564154 759.205308,346.237754 759.205308,328.564154 C759.205308,310.89162 744.779471,296.564154 726.984401,296.564154 Z" id="Shape-path"></path>
            <path d="M1.07560512,236.025593 C3.36833887,216.27416 21.3492014,202.108345 41.2369855,204.38536 C61.1247697,206.662375 75.3883764,224.51996 73.0956426,244.271393 C70.9871383,262.435727 74.2755914,274.445293 82.2526796,283.109824 C91.6161721,293.280235 109.283468,301.299008 136.26458,305.822672 C156.004769,309.13232 169.305832,327.708191 165.973336,347.313041 C162.64084,366.917891 143.936733,380.127761 124.196544,376.818113 C82.5866301,369.841778 50.434257,355.248567 28.7494367,331.695012 C5.67821218,306.635576 -3.31029095,273.809192 1.07560512,236.025593 Z" id="Path-25"></path>
            <path d="M579.452828,193.027769 C598.939938,197.582513 611.019524,216.963979 606.433337,236.317486 C601.84715,255.670992 582.331887,267.66776 562.844776,263.113016 C491.187113,246.364392 425.263556,255.102943 363.24347,289.416993 C345.754698,299.093061 323.679093,292.856815 313.936228,275.487946 C304.193362,258.119077 310.472659,236.194823 327.961432,226.518755 C405.906156,183.39403 490.346833,172.200927 579.452828,193.027769 Z" id="Path-26"></path>
        </g>
    </g>
</svg>
