<?xml version="1.0" encoding="UTF-8"?>
<svg width="1024px" height="1024px" viewBox="0 0 1024 1024" version="1.1" xmlns="http://www.w3.org/2000/svg" xmlns:xlink="http://www.w3.org/1999/xlink">
    <!-- Generator: Sketch 53.2 (72643) - https://sketchapp.com -->
    <title>plus-circle-outline</title>
    <desc>Created with Sketch.</desc>
    <g id="plus-circle-outline" stroke="none" stroke-width="1" fill-rule="evenodd">
        <path d="M512,72 C268.628502,72 72,268.628502 72,512 C72,755.371498 268.628502,952 512,952 C755.371498,952 952,755.371498 952,512 C952,268.628502 755.371498,72 512,72 Z M512,0 C795.136,0 1024,228.864 1024,512 C1024,795.136 795.136,1024 512,1024 C228.864,1024 0,795.136 0,512 C0,228.864 228.864,0 512,0 Z" id="Path" fill-rule="nonzero"></path>
        <path d="M548.5,476.5 L781,476.5 C800.882251,476.5 817,492.617749 817,512.5 C817,532.382251 800.882251,548.5 781,548.5 L548.5,548.5 L548.5,781 C548.5,800.882251 532.382251,817 512.5,817 C492.617749,817 476.5,800.882251 476.5,781 L476.5,548.5 L244,548.5 C224.117749,548.5 208,532.382251 208,512.5 C208,492.617749 224.117749,476.5 244,476.5 L476.5,476.5 L476.5,244 C476.5,224.117749 492.617749,208 512.5,208 C532.382251,208 548.5,224.117749 548.5,244 L548.5,476.5 Z" id="Combined-Shape"></path>
    </g>
</svg>
