<?xml version="1.0" encoding="UTF-8"?>
<svg width="1024px" height="1024px" viewBox="0 0 1024 1024" version="1.1" xmlns="http://www.w3.org/2000/svg" xmlns:xlink="http://www.w3.org/1999/xlink">
    <!-- Generator: Sketch 53.2 (72643) - https://sketchapp.com -->
    <title>target-outline</title>
    <desc>Created with Sketch.</desc>
    <g id="target-outline" stroke="none" stroke-width="1" fill-rule="evenodd">
        <rect id="Rectangle" transform="translate(583.605966, 436.598797) rotate(-44.500000) translate(-583.605966, -436.598797) " x="307.605966" y="400.598797" width="552" height="72" rx="36"></rect>
        <path d="M794.010641,627.447889 C794.010641,846.704934 616.265305,1024.44789 397.005321,1024.44789 C177.745336,1024.44789 2.84217094e-13,846.704934 2.84217094e-13,627.447889 C2.84217094e-13,408.190843 177.745336,230.447889 397.005321,230.447889 C464.976843,230.447889 528.958699,247.529453 584.892274,277.63402 L529.136645,330.263285 C481.678938,310.237636 451.358163,303.366256 397.005321,303.366256 C218.017578,303.366256 72.9193446,448.462545 72.9193446,627.447889 C72.9193446,806.433232 218.017578,951.529521 397.005321,951.529521 C575.993063,951.529521 721.091297,806.433232 721.091297,627.447889 C721.091297,571.533455 714.264664,527.472449 689.422305,482.016889 L740.469747,428.208726 C774.514012,486.768874 794.010641,554.831571 794.010641,627.447889 Z" id="Path" fill-rule="nonzero"></path>
        <path d="M459.388802,420.26892 L396.970774,483.009346 C317.630167,483.009346 253.311896,547.476158 253.311896,627 C253.311896,706.523842 317.630167,770.990654 396.970774,770.990654 C476.311382,770.990654 540.629653,706.523842 540.629653,627 C540.629653,623.153287 540.479978,619.329064 540.182575,615.53253 L604.5428,553.91256 C613.470774,581.138797 613.470774,616.858034 613.470774,627 C613.470774,746.845791 516.540423,844 396.970774,844 C277.401126,844 180.470774,746.845791 180.470774,627 C180.470774,507.154209 277.401126,410 396.970774,410 C409.873825,410 435.181539,410 459.388802,420.26892 Z" id="Path" fill-rule="nonzero"></path>
        <path d="M980.088855,101.773229 C1014.57687,94.5226749 1037.86429,136.02058 1013.70689,161.680142 L890.894385,292.12936 C883.170068,300.33399 872.049614,304.448424 860.845238,303.247182 L786.545434,295.281362 C779.079887,294.480967 772.051423,291.366359 766.443751,286.373463 L740.121485,262.936939 C733.67147,257.194048 729.500881,249.32383 728.370506,240.761953 L719.309959,172.134023 C717.906885,161.50662 721.312825,150.806767 728.601009,142.945934 L850.336753,11.6451531 C874.300227,-14.2011818 917.287466,6.22377301 912.386233,41.1273404 L901.551674,118.284418 L980.088855,101.773229 Z M792.905639,179.487949 L797.998812,218.065525 L805.699898,224.922332 L850.733651,229.750484 L882.670405,195.827841 L834.482677,191.250166 L825.13177,144.729742 L792.905639,179.487949 Z" id="Path-22" fill-rule="nonzero"></path>
    </g>
</svg>
